<svg version="1.1" id="Layer_1" xmlns="http://www.w3.org/2000/svg" xmlns:xlink="http://www.w3.org/1999/xlink" x="0px" y="0px"
	 width="100%" viewBox="0 0 849 879" enable-background="new 0 0 849 879" xml:space="preserve">
<path fill="#1a1a1a" opacity="1.000000" stroke="none" 
	d="
M630.837036,705.669189 
	C619.580139,710.569824 608.584229,716.225952 597.015137,720.223083 
	C567.624084,730.377686 538.232666,740.671570 508.385376,749.339722 
	C402.609924,780.058594 281.928955,751.986816 198.465805,680.187805 
	C141.568604,631.242004 108.145828,569.257019 92.593765,497.308533 
	C66.490013,376.544769 96.367004,269.936127 180.113785,179.603882 
	C233.170822,122.374687 300.551117,90.611862 377.537659,79.285637 
	C401.395935,75.775627 425.424896,77.623123 449.407684,78.614311 
	C492.908844,80.412178 533.742920,92.453842 572.482239,111.480812 
	C591.713196,120.926178 609.874695,132.557037 628.419312,143.371994 
	C629.559204,144.036774 630.411316,146.246292 630.351013,147.693512 
	C630.234680,150.485519 629.599915,153.316299 628.779541,156.008987 
	C622.318604,177.215836 611.536621,196.287430 599.593689,215.250061 
	C594.104919,211.956879 588.897522,208.762543 583.623962,205.681335 
	C566.812134,195.858643 550.273193,185.516739 533.082520,176.406296 
	C503.766754,160.869995 472.452515,151.710587 439.197449,149.715759 
	C437.565491,149.617859 435.922516,149.703171 433.852356,149.703171 
	C433.243408,161.087265 432.548340,172.336655 432.075958,183.595398 
	C431.810638,189.918564 432.234894,196.282074 431.746918,202.580811 
	C431.367462,207.479294 433.910797,210.127090 437.169922,213.016907 
	C439.011963,214.650162 440.660004,217.310913 440.976013,219.696854 
	C441.757904,225.600800 441.722717,231.612946 442.038635,238.045731 
	C447.559265,238.045731 452.992462,238.125397 458.422577,238.029190 
	C469.865143,237.826477 480.279602,240.435898 490.043060,246.919113 
	C505.901886,257.449829 514.674927,279.349426 509.298309,297.687714 
	C507.944885,302.303864 506.050049,306.763336 504.358093,311.277618 
	C501.026428,320.166626 494.297028,325.007751 486.255554,330.007202 
	C473.122559,338.172089 458.976135,335.949432 445.197174,337.832367 
	C425.639740,340.504913 406.275970,337.267792 386.902283,335.644196 
	C375.511047,334.689545 366.409332,328.008240 358.481079,320.172089 
	C356.355011,318.070709 355.645844,314.535767 354.286224,311.658905 
	C354.711243,311.377197 355.136230,311.095459 355.561218,310.813751 
	C361.541107,316.303162 367.520996,321.792572 373.779144,327.537445 
	C375.601410,325.211151 376.790405,323.693329 377.810699,322.390778 
	C380.691650,324.235413 383.387238,325.961395 387.057129,328.311188 
	C385.671051,323.901031 384.802917,321.138824 383.820221,318.012238 
	C391.555237,318.409790 393.467529,329.013367 401.067139,326.861542 
	C398.405731,314.463806 395.764771,302.161377 393.033020,289.436066 
	C389.731354,289.436066 385.644897,289.436066 380.713257,289.436066 
	C381.979218,297.912842 383.210449,306.157196 384.441711,314.401550 
	C375.774750,308.084381 375.844360,298.472626 374.201233,289.389679 
	C371.081604,289.389679 368.160156,289.389679 365.074738,289.389679 
	C363.085236,300.613617 371.659943,309.095551 372.772125,320.398285 
	C361.833008,313.052002 362.548035,300.801483 357.652161,291.086304 
	C356.426086,291.030060 354.964294,290.962982 352.296478,290.840546 
	C353.081482,297.210815 353.820526,303.208160 354.649780,309.937531 
	C347.834534,303.221588 345.778931,295.527008 347.237640,286.999878 
	C348.498047,279.631897 350.043518,272.240967 352.312653,265.131378 
	C357.867737,247.726517 371.563507,240.730789 388.412750,239.133713 
	C397.647736,238.258377 407.033844,238.977203 416.698334,238.977203 
	C417.114319,232.011520 417.254181,225.903702 417.955475,219.861053 
	C418.219818,217.583771 419.786713,215.458511 420.755066,213.261826 
	C421.545624,211.468353 422.934845,209.700806 423.022522,207.872086 
	C423.945862,188.613098 424.660889,169.344116 425.469360,149.182053 
	C412.868378,149.815048 400.930389,150.107880 389.046112,151.066864 
	C346.313965,154.515121 306.919922,167.499863 272.246002,193.224197 
	C216.578964,234.523102 184.228333,290.475861 171.239517,357.765869 
	C161.870316,406.304077 162.458527,455.014008 176.110596,502.819092 
	C196.629791,574.670776 237.846024,630.718872 305.234741,665.241333 
	C344.210968,685.208374 386.231873,691.944885 429.788361,689.371704 
	C475.080566,686.695862 516.980347,673.184692 555.391113,649.106750 
	C569.193298,640.454834 582.621765,631.199951 596.119019,622.070007 
	C615.877197,608.704956 625.872559,589.428162 629.661621,566.455444 
	C634.729492,612.905579 635.022766,659.272156 630.837036,705.669189 
M476.842346,325.562408 
	C478.200531,326.332947 479.558716,327.103485 481.087799,327.971008 
	C496.621124,320.380432 505.414795,306.289429 503.737823,291.096375 
	C502.339142,291.096375 500.915985,291.096375 499.385864,291.096375 
	C498.178223,295.192627 497.451355,299.362061 495.740082,303.078186 
	C492.910461,309.222809 489.706787,315.240540 486.086182,320.947235 
	C485.035461,322.603363 482.025116,323.016266 480.106720,323.308716 
	C486.823181,313.040863 491.831726,302.154419 492.851929,289.379578 
	C491.367371,289.274811 490.393860,289.285980 489.449310,289.126068 
	C484.514893,288.290588 481.860138,289.706390 481.534790,295.333038 
	C481.260590,300.075531 480.172455,304.889465 478.650635,309.404175 
	C477.407227,313.092987 474.991791,316.386749 473.095978,319.855652 
	C472.635803,319.643799 472.175659,319.431915 471.715485,319.220062 
	C471.715485,317.478943 471.715485,315.737823 471.979248,313.250610 
	C473.582275,305.398010 477.095795,297.834747 475.896362,289.473450 
	C471.504883,289.473450 467.442871,289.473450 463.957153,289.473450 
	C462.589478,298.061035 461.607788,306.303162 459.859619,314.379364 
	C458.895264,318.834534 457.154968,323.397827 451.861603,324.177429 
	C454.110535,312.701752 456.359436,301.226074 458.736938,289.094147 
	C454.865967,289.094147 452.067505,289.007812 449.276062,289.111542 
	C442.822968,289.351349 440.244751,291.728638 440.022522,298.292419 
	C439.871460,302.753845 440.276733,307.245728 440.628143,311.708618 
	C440.885742,314.979919 440.540466,317.806885 436.729431,320.029022 
	C436.729431,309.402985 436.729431,299.492950 436.729431,289.536560 
	C431.623871,289.536560 426.922577,289.536560 421.760193,289.536560 
	C421.760193,294.736969 421.709564,299.553253 421.774963,304.367889 
	C421.835876,308.852448 421.655579,313.382996 422.233826,317.808044 
	C423.149414,324.814514 426.736420,327.916077 433.363678,328.088104 
	C433.545959,325.875214 433.729340,323.648651 433.912750,321.422119 
	C434.265198,321.280670 434.617645,321.139221 434.970093,320.997772 
	C436.281982,323.272827 437.593903,325.547882 438.956116,327.910126 
	C442.803986,327.527161 446.899597,327.119537 451.904633,326.886597 
	C458.666809,327.585968 465.286804,328.012665 467.649475,319.399567 
	C472.758026,320.025879 470.760742,323.757477 470.447968,326.828888 
	C472.547577,326.309418 474.267456,325.883911 476.842346,325.562408 
M381.123596,264.847290 
	C381.123596,271.218719 381.123596,277.590179 381.123596,283.984131 
	C385.717957,283.984131 389.809113,283.984131 393.815582,283.984131 
	C395.008209,277.035187 395.856842,270.270905 397.390167,263.665619 
	C398.940369,256.987579 401.168701,250.466995 403.179749,243.605194 
	C396.606293,244.856964 392.391785,248.640411 389.172455,254.014633 
	C387.413727,256.950562 385.081238,259.542847 382.198242,262.374725 
	C382.186340,260.508301 381.746033,258.512848 382.260406,256.804932 
	C383.084778,254.067764 384.541687,251.521133 385.731232,248.893967 
	C385.242310,248.433899 384.753387,247.973816 384.264496,247.513748 
	C378.969208,251.827011 373.673889,256.140289 368.378601,260.453552 
	C368.128448,260.291626 367.878265,260.129730 367.628082,259.967834 
	C368.982849,256.773041 370.337616,253.578262 371.757507,250.229935 
	C358.598175,255.380493 349.900208,272.975739 354.987915,283.830475 
	C358.584198,283.207977 360.300568,280.976135 360.764099,277.438934 
	C361.390533,272.658813 362.094666,267.885010 362.946777,263.141083 
	C363.158112,261.964722 364.067444,260.913757 364.655914,259.805145 
	C365.129791,261.003113 366.063812,262.225525 366.001678,263.395020 
	C365.641998,270.164703 365.047485,276.921936 364.510315,283.973663 
	C368.038910,283.973663 371.091095,283.973663 374.406433,283.973663 
	C375.533936,277.727051 376.721649,271.710297 377.666138,265.655579 
	C378.084015,262.976776 378.731415,261.751007 381.123596,264.847290 
M418.769318,321.462646 
	C418.122711,311.370026 417.476105,301.277435 416.794830,290.643463 
	C410.962402,290.061279 405.153992,289.481506 398.172455,288.784607 
	C399.960541,299.005249 400.983856,308.101807 403.257233,316.874420 
	C405.262543,324.612701 410.166901,327.221649 418.799316,326.704010 
	C418.799316,325.284882 418.799316,323.833618 418.769318,321.462646 
M454.885315,264.619476 
	C453.357117,258.239227 451.828918,251.858963 450.213806,245.115952 
	C447.020874,244.719269 442.996613,244.219315 438.528625,243.664215 
	C439.088776,256.865601 439.633453,269.702667 440.175140,282.469025 
	C446.553528,283.099915 452.221893,283.660583 458.938629,284.324951 
	C457.511749,277.363953 456.287384,271.390808 454.885315,264.619476 
M417.115784,278.343994 
	C417.697174,266.789001 418.278534,255.234009 418.933197,242.222778 
	C415.918182,243.384003 412.371002,243.704269 411.875793,245.104156 
	C407.364319,257.857666 403.384521,270.799255 399.007904,284.438263 
	C404.944336,283.825623 410.198761,283.411713 415.391205,282.600952 
	C416.121185,282.487000 416.547974,280.431488 417.115784,278.343994 
M461.755920,273.913635 
	C462.281708,277.297943 462.807526,280.682220 463.308411,283.906189 
	C467.842407,283.906189 471.919495,283.906189 475.975952,283.906189 
	C476.675110,264.252441 466.330444,245.394333 454.385864,243.793655 
	C456.767609,253.497177 459.169861,263.284302 461.755920,273.913635 
M435.058319,283.382294 
	C434.343567,270.059875 433.628845,256.737427 432.912384,243.382690 
	C429.501923,243.382690 427.583649,243.382690 424.203552,243.382690 
	C423.219879,256.924866 422.246643,270.323303 421.245575,284.104736 
	C426.497925,284.104736 430.445099,284.104736 435.058319,283.382294 
M468.569489,246.352615 
	C473.979767,255.859131 479.654694,265.151062 481.058868,276.445831 
	C481.949158,283.606842 485.078705,285.067200 493.406219,283.278595 
	C492.267090,278.490051 491.676453,273.486481 489.846497,268.986908 
	C487.804871,263.966888 486.005920,259.257599 488.378723,254.909622 
	C486.721680,254.785858 484.972870,255.146637 483.848816,254.469833 
	C481.448975,253.024918 479.543518,250.743286 477.118744,249.359680 
	C474.401428,247.809128 471.334137,246.871948 468.569489,246.352615 
M498.139435,279.524414 
	C499.014679,282.773987 500.961639,283.561157 504.153687,282.126556 
	C504.245850,271.063293 501.469696,261.560059 491.792450,255.323853 
	C491.313171,255.497253 490.833893,255.670670 490.354614,255.844070 
	C492.857056,263.496490 495.359467,271.148895 498.139435,279.524414 
z"/>
<path fill="#FD8007" opacity="1.000000" stroke="none" 
	d="
M630.894775,706.122620 
	C635.022766,659.272156 634.729492,612.905579 629.873840,566.119507 
	C626.918335,534.138855 622.650696,502.835938 613.739197,472.340759 
	C612.995239,469.794891 611.889954,467.347931 610.861816,464.893066 
	C606.323853,454.057983 598.425781,448.385315 586.411865,448.807587 
	C567.803345,449.461609 549.507935,447.405792 530.906555,442.049805 
	C529.144348,441.806885 528.092651,441.627411 527.040894,441.447937 
	C527.507324,438.059479 527.973694,434.671051 528.459412,431.142303 
	C551.834412,438.097351 574.911621,440.272552 598.028381,438.937347 
	C611.664856,438.149689 625.313904,434.800293 638.595032,431.248474 
	C662.379517,424.887695 685.853394,417.374176 709.532959,410.607758 
	C719.999329,407.617035 730.650574,407.921875 741.114075,410.943298 
	C754.136963,414.703644 760.931335,423.222839 759.944397,436.730225 
	C758.841980,451.817719 756.623596,466.839600 754.490967,481.833130 
	C746.376404,538.883240 742.475586,596.178162 746.390137,653.723633 
	C748.331970,682.269897 752.513428,710.659668 755.445679,739.144531 
	C756.826050,752.555054 757.548035,766.031982 758.753052,779.462219 
	C760.041809,793.824341 745.526917,811.436157 727.689453,807.356995 
	C717.215149,804.961731 706.780151,801.987976 696.749329,798.166992 
	C685.234253,793.780579 674.101868,788.630188 661.587769,787.398621 
	C642.761780,785.545898 631.997070,791.675903 625.624390,809.408569 
	C622.254944,818.784424 619.960388,828.543945 617.078369,838.099426 
	C616.267456,840.788025 615.194519,843.411438 614.062866,845.986145 
	C612.695679,849.096863 610.387390,848.945312 607.434387,848.138855 
	C603.945190,847.186035 604.483215,844.813354 605.056458,842.669373 
	C608.064087,831.421265 611.470581,820.277344 614.348328,808.997681 
	C622.930664,775.359070 628.076233,741.147705 630.894775,706.122620 
z"/>
<path fill="#FD8007" opacity="1.000000" stroke="none" 
	d="
M603.334412,361.487732 
	C596.449219,335.217194 602.530884,312.822357 622.345459,297.479614 
	C637.013977,286.121552 653.324707,284.720154 669.725159,293.013153 
	C704.003174,310.346008 712.718262,357.127594 680.184753,385.998993 
	C664.233093,400.155121 636.536316,399.460907 620.372192,385.605713 
	C612.784851,379.102203 607.101562,371.201691 603.334412,361.487732 
z"/>
<path fill="#1a1a1a" opacity="1.000000" stroke="none" 
	d="
M526.773560,441.673584 
	C528.092651,441.627411 529.144348,441.806885 530.509094,442.068237 
	C534.765869,450.457703 534.099487,459.351807 534.157104,468.160370 
	C534.193787,473.775055 532.544495,480.344055 534.908203,484.729828 
	C537.184204,488.952911 543.627258,490.952148 548.276306,493.869812 
	C558.147705,500.064911 568.139160,506.075897 577.868408,512.485718 
	C580.694885,514.347900 582.799255,517.306274 585.635132,520.166016 
	C579.997864,523.231445 576.161011,521.247986 572.678772,519.114258 
	C564.448364,514.071228 556.438477,508.669434 548.303467,503.469055 
	C543.836426,500.613495 539.296387,497.872162 533.976013,494.575409 
	C533.310120,501.475189 532.229858,507.642975 532.199585,513.815918 
	C532.031433,548.144958 532.118164,582.475159 532.117676,616.804993 
	C532.117676,618.621277 532.117676,620.437561 532.117676,622.594849 
	C529.969971,622.594849 528.081177,622.594849 525.609192,622.594849 
	C525.609192,620.688354 525.609192,618.735901 525.609192,616.783508 
	C525.609314,575.621094 525.553467,534.458496 525.702148,493.296600 
	C525.715942,489.487122 524.576721,487.365417 521.335449,485.337402 
	C492.826477,467.500427 464.418457,449.501373 436.046692,431.446442 
	C432.484375,429.179443 429.350128,428.717865 425.403687,430.649323 
	C396.110931,444.985687 366.737000,459.156219 337.383301,473.368073 
	C334.687744,474.673157 332.041504,476.153748 329.223480,477.117615 
	C322.550842,479.399933 316.852753,481.980988 317.586975,490.878265 
	C317.764496,493.029327 315.175720,495.976471 313.117340,497.639557 
	C306.501648,502.984711 306.367859,502.819153 307.508759,511.897644 
	C314.048615,506.963287 320.536407,502.068207 327.040588,497.160797 
	C337.321106,511.295959 326.103638,535.739136 307.314392,542.465759 
	C307.314392,548.775208 307.314392,555.179688 307.314392,562.040527 
	C310.981232,562.040527 314.452179,562.225037 317.894684,561.990784 
	C321.647430,561.735413 324.101562,563.249207 325.038239,566.768127 
	C328.581116,580.078064 328.138885,593.550537 322.488831,605.878357 
	C318.592682,614.379395 309.085999,615.085938 300.594696,614.745300 
	C292.396973,614.416565 284.696320,612.278320 280.397247,604.159546 
	C279.860992,603.146912 279.361755,601.958740 279.351807,600.847351 
	C279.249268,589.357483 279.147552,577.865479 279.291687,566.377075 
	C279.330688,563.269043 281.369598,561.661255 284.666809,561.864136 
	C286.792206,561.994934 288.932190,561.888672 292.181458,561.888672 
	C290.004822,559.897278 288.520996,558.470398 286.964844,557.127319 
	C277.726685,549.154114 273.890381,538.826050 274.268890,526.909729 
	C274.350220,524.349121 275.408173,520.904846 277.241852,519.628784 
	C278.513580,518.743774 282.253479,520.358887 284.244263,521.769287 
	C288.528595,524.804504 292.395752,528.428589 297.130859,532.395752 
	C297.726715,521.706848 298.277832,511.820709 298.858673,501.400696 
	C287.268738,498.730255 285.728363,489.734619 285.714172,479.841980 
	C285.711548,478.008881 285.691467,476.175720 285.703979,474.342743 
	C285.764404,465.487427 286.090393,465.151642 294.855713,465.058929 
	C299.688232,465.007812 304.521057,464.967804 309.353790,464.960541 
	C317.417114,464.948425 317.417145,464.961151 319.214783,472.992432 
	C338.707886,463.509277 358.135437,454.102783 377.522034,444.612579 
	C393.202698,436.936554 408.742371,428.962219 424.575226,421.617432 
	C427.286682,420.359589 431.511169,420.715332 434.409607,421.882690 
	C439.135254,423.786011 443.408264,426.870941 447.760803,429.633026 
	C470.674866,444.174133 493.544800,458.784668 516.457703,473.327576 
	C519.083191,474.993988 521.880920,476.389130 525.273926,478.287872 
	C525.989807,465.680481 521.132507,453.544342 526.773560,441.673584 
M318.210052,594.357605 
	C320.006958,586.206848 318.872925,578.288757 316.704315,570.221436 
	C311.501434,570.221436 306.684662,570.221436 301.867920,570.221436 
	C297.114960,570.221436 292.362030,570.221436 287.155029,570.221436 
	C287.155029,579.407471 286.780701,587.897888 287.360321,596.322632 
	C287.560059,599.226135 289.418121,603.106079 291.754913,604.580261 
	C301.046082,610.441528 314.226654,605.420898 318.210052,594.357605 
M298.825745,486.511566 
	C304.145233,483.552032 303.695038,478.601196 303.687378,473.575348 
	C300.225983,473.575348 297.198120,473.575348 294.132263,473.575348 
	C294.132263,478.504761 294.132263,483.076538 294.132263,487.973572 
	C295.646118,487.553070 296.885498,487.208832 298.825745,486.511566 
z"/>
<path fill="#1a1a1a" opacity="1.000000" stroke="none" 
	d="
M343.629913,535.515503 
	C345.543579,519.970459 343.736908,519.487061 361.526001,519.207397 
	C362.842316,519.186646 364.159180,519.204651 365.779144,519.204651 
	C366.145813,512.945984 366.318756,506.835449 366.927002,500.768494 
	C367.306030,496.987579 368.003113,493.164764 369.151031,489.549194 
	C372.039307,480.452240 378.554321,475.267822 388.009705,475.132751 
	C410.485962,474.811737 432.969635,474.990021 455.450226,475.034088 
	C457.428223,475.037964 459.416077,475.475159 461.380951,475.817017 
	C473.273865,477.886444 478.573273,483.171753 479.971741,495.199615 
	C480.871033,502.934326 481.074371,510.749939 481.633606,519.192627 
	C485.067261,519.192627 488.668701,519.019653 492.248169,519.226807 
	C501.105804,519.739319 504.150543,522.916138 504.158234,531.711365 
	C504.178528,554.855286 504.632843,578.015747 503.893829,601.137024 
	C503.429565,615.661621 505.037384,613.506653 489.963806,614.723938 
	C481.270142,615.425964 472.401428,613.960388 463.143738,613.444397 
	C463.143738,607.615112 463.143738,602.378052 463.143738,596.915405 
	C436.732025,596.915405 410.825470,596.915405 384.421051,596.915405 
	C384.421051,602.240112 384.421051,607.464111 384.421051,612.951294 
	C371.138092,615.918823 358.319885,615.764893 344.698639,613.053467 
	C341.962524,587.423401 342.429108,561.704468 343.629913,535.515503 
M434.499451,482.798004 
	C420.016663,482.914703 405.533386,482.992157 391.051239,483.163177 
	C382.680542,483.261993 377.778809,486.571014 376.494263,493.943665 
	C375.415344,500.135925 374.900726,506.531433 375.138428,512.798950 
	C375.240112,515.480469 377.272156,518.969788 379.513641,520.490417 
	C383.219727,523.004761 384.452576,525.813782 384.287567,530.035889 
	C384.044006,536.268066 384.224640,542.516907 384.224640,549.053467 
	C410.915527,548.274048 436.856720,544.051697 462.782593,550.523132 
	C462.782593,544.053345 462.737305,538.091125 462.795624,532.129944 
	C462.850830,526.486572 465.011963,522.231750 470.564056,519.935547 
	C471.667511,519.479187 472.874725,517.617920 472.868469,516.410522 
	C472.834930,509.932251 472.787354,503.416321 472.068726,496.988922 
	C471.154846,488.815308 467.624603,485.018860 459.386017,484.023499 
	C451.489319,483.069489 443.466705,483.157837 434.499451,482.798004 
M409.669800,555.057983 
	C402.775848,556.008484 395.819031,556.662537 389.029144,558.103577 
	C387.174194,558.497253 384.556610,561.180298 384.453064,562.940063 
	C383.967682,571.190186 384.237335,579.484680 384.237335,588.013977 
	C410.703339,588.013977 436.705170,588.013977 463.157837,588.013977 
	C463.157837,579.623230 463.075378,571.504761 463.190887,563.389038 
	C463.253235,559.008728 461.328339,557.068054 456.955627,556.913452 
	C441.512115,556.367493 426.073914,555.671631 409.669800,555.057983 
M471.370850,528.818420 
	C471.370850,554.547913 471.370850,580.277405 471.370850,606.118896 
	C479.805267,606.118896 487.701904,606.118896 495.621490,606.118896 
	C495.621490,579.828552 495.621490,553.832031 495.621490,528.013062 
	C487.463562,528.013062 479.673492,528.013062 471.370850,528.818420 
M370.457916,606.410950 
	C372.216644,606.333984 373.975342,606.257019 375.647949,606.183838 
	C375.647949,579.771118 375.647949,553.784363 375.647949,527.618164 
	C369.781128,527.618164 364.296600,527.606018 358.812103,527.621216 
	C351.863495,527.640503 351.391174,528.074829 351.385284,534.903564 
	C351.366119,557.190552 351.372864,579.477600 351.389343,601.764587 
	C351.390411,603.196045 351.558929,604.627380 351.671814,606.410889 
	C357.870117,606.410889 363.669647,606.410889 370.457916,606.410950 
z"/>

</svg>